<svg width="1440" height="132" viewBox="0 0 1440 132" fill="none" xmlns="http://www.w3.org/2000/svg">
<rect width="1440" height="132" fill="white"/>
<path d="M688.992 43L691.152 38.272H699.984L702.144 43H704.064L696.768 26.92H694.392L687.12 43H688.992ZM694.608 30.64L695.472 28.552H695.616L696.504 30.64L699.288 36.736H691.848L694.608 30.64ZM712.172 43L717.836 31.144H715.988L711.212 41.32H711.068L706.268 31.144H704.42L710.084 43H712.172ZM721.222 29.632V26.92H719.518V29.632H721.222ZM721.222 43V31.144H719.518V43H721.222ZM729.896 43.24C733.784 43.24 736.352 40.672 736.352 37.072C736.352 33.472 733.784 30.904 729.896 30.904C726.032 30.904 723.464 33.472 723.464 37.072C723.464 40.672 726.032 43.24 729.896 43.24ZM729.896 41.704C726.632 41.704 725.144 39.952 725.144 37.072C725.144 34.216 726.632 32.44 729.896 32.44C733.16 32.44 734.672 34.216 734.672 37.072C734.672 39.952 733.16 41.704 729.896 41.704ZM740.324 43V37.264C740.324 34.216 741.836 32.464 744.716 32.464C747.428 32.464 748.604 33.88 748.604 36.328V43H750.308V36.088C750.308 33.28 748.652 30.904 745.316 30.904C742.364 30.904 740.684 32.848 740.276 34.864H740.156V31.144H738.62V43H740.324Z" fill="#22202E"/>
<path d="M387.76 102.792C389.952 102.792 391.36 101.224 391.36 99.144C391.36 96.984 389.968 95.544 387.76 95.544H383.392V107H384.544V102.792H387.76ZM387.6 96.584C389.184 96.584 390.16 97.544 390.16 99.128C390.16 100.696 389.2 101.752 387.536 101.752H384.544V96.584H387.6ZM394.132 107V95.336H393.028V107H394.132ZM398.704 107.192C400.016 107.192 401.072 106.616 401.552 105.64L401.696 107H402.624V101.992C402.624 99.944 401.312 99.048 399.52 99.048C397.616 99.048 396.336 100.056 396.336 101.624H397.344C397.344 100.584 398.144 99.976 399.488 99.976C400.624 99.976 401.536 100.456 401.536 101.976V102.232L398.976 102.44C397.168 102.584 396.08 103.48 396.08 104.904C396.08 106.264 397.056 107.192 398.704 107.192ZM398.96 106.296C397.904 106.296 397.2 105.816 397.2 104.872C397.2 104.008 397.792 103.368 399.248 103.24L401.536 103.064V103.48C401.536 105.16 400.592 106.296 398.96 106.296ZM405.944 107V102.952C405.944 101.208 406.84 100.056 408.424 100.056C409.704 100.056 410.52 100.696 410.52 102.504V107H411.624V102.264C411.624 100.312 410.744 99.048 408.616 99.048C407.496 99.048 406.472 99.608 405.96 100.6L405.799 99.256H404.84V107H405.944ZM415.6 107V100.184H417.152V99.256H415.6V96.808H414.512V99.256H412.96V100.184H414.512V107H415.6ZM423.027 110.376H424.131V105.512C424.675 106.632 425.715 107.192 427.027 107.192C429.315 107.192 430.611 105.432 430.611 103.096C430.611 100.76 429.267 99.048 427.027 99.048C425.731 99.048 424.643 99.624 424.099 100.824L423.987 99.256H423.027V110.376ZM424.147 103.128C424.147 101.336 425.139 100.056 426.835 100.056C428.515 100.056 429.491 101.336 429.491 103.128C429.491 104.904 428.515 106.2 426.835 106.2C425.139 106.2 424.147 104.904 424.147 103.128ZM431.827 103.128C431.827 105.48 433.491 107.192 435.763 107.192C438.035 107.192 439.699 105.48 439.699 103.128C439.699 100.76 438.035 99.048 435.763 99.048C433.491 99.048 431.827 100.76 431.827 103.128ZM432.947 103.112C432.947 101.32 434.099 100.04 435.763 100.04C437.411 100.04 438.579 101.32 438.579 103.112C438.579 104.936 437.411 106.2 435.763 106.2C434.099 106.2 432.947 104.936 432.947 103.112ZM443.162 107V100.184H444.714V99.256H443.162V96.808H442.074V99.256H440.522V100.184H442.074V107H443.162ZM445.496 104.824C445.496 106.264 446.584 107.192 448.328 107.192C450.088 107.192 451.272 106.28 451.272 104.888C451.272 103.768 450.664 103.144 449.32 102.808L447.992 102.472C447.144 102.264 446.728 101.848 446.728 101.256C446.728 100.424 447.336 99.96 448.424 99.96C449.464 99.96 450.088 100.488 450.12 101.384H451.192C451.144 99.944 450.088 99.048 448.456 99.048C446.792 99.048 445.656 99.912 445.656 101.272C445.656 102.328 446.312 103.032 447.656 103.368L448.984 103.704C449.896 103.928 450.216 104.296 450.216 104.936C450.216 105.768 449.512 106.28 448.312 106.28C447.224 106.28 446.552 105.72 446.552 104.824H445.496Z" fill="#726E8D"/>
<path d="M502.064 107.176C504.528 107.176 506.528 105.72 507.056 103.56H505.824C505.328 105.096 503.888 106.072 502.08 106.072C499.568 106.072 497.888 104.152 497.888 101.272C497.888 98.376 499.568 96.456 502.08 96.456C503.872 96.456 505.28 97.464 505.76 99.112H506.992C506.528 96.84 504.592 95.352 502.128 95.352C498.896 95.352 496.688 97.752 496.688 101.272C496.688 104.792 498.864 107.176 502.064 107.176ZM512.056 107.192C513.88 107.192 515.08 106.312 515.496 104.68H514.44C514.152 105.704 513.336 106.248 512.072 106.248C510.408 106.248 509.416 105.16 509.336 103.272H515.496V102.728C515.496 100.536 514.072 99.048 511.976 99.048C509.768 99.048 508.264 100.712 508.264 103.128C508.264 105.56 509.784 107.192 512.056 107.192ZM511.976 99.992C513.432 99.992 514.392 100.984 514.392 102.472H509.368C509.56 100.952 510.52 99.992 511.976 99.992ZM521.309 99.16C521.037 99.096 520.829 99.08 520.589 99.08C519.501 99.08 518.685 99.624 518.381 100.456L518.301 99.256H517.261V107H518.365V102.584C518.365 101.112 519.277 100.152 520.701 100.152H521.309V99.16ZM524.689 107.192C526.001 107.192 527.057 106.616 527.537 105.64L527.681 107H528.609V101.992C528.609 99.944 527.297 99.048 525.505 99.048C523.601 99.048 522.321 100.056 522.321 101.624H523.329C523.329 100.584 524.129 99.976 525.473 99.976C526.609 99.976 527.521 100.456 527.521 101.976V102.232L524.961 102.44C523.153 102.584 522.065 103.48 522.065 104.904C522.065 106.264 523.041 107.192 524.689 107.192ZM524.945 106.296C523.889 106.296 523.185 105.816 523.185 104.872C523.185 104.008 523.777 103.368 525.233 103.24L527.521 103.064V103.48C527.521 105.16 526.577 106.296 524.945 106.296ZM531.928 107V102.2C531.928 101.016 532.712 100.056 534.008 100.056C535.176 100.056 535.928 100.824 535.928 102.136V107H537.016V102.216C537.016 101.016 537.784 100.04 539.08 100.04C540.264 100.04 541 100.824 541 102.152V107H542.072V101.928C542.072 100.136 540.968 99.048 539.288 99.048C538.04 99.048 537.096 99.688 536.744 100.696C536.376 99.688 535.464 99.048 534.248 99.048C533.16 99.048 532.296 99.544 531.912 100.36L531.784 99.256H530.824V107H531.928ZM544.837 97.128C545.285 97.128 545.669 96.76 545.669 96.312C545.669 95.864 545.285 95.48 544.837 95.48C544.389 95.48 544.021 95.864 544.021 96.312C544.021 96.76 544.389 97.128 544.837 97.128ZM544.293 107H545.397V99.256H544.293V107ZM547.155 103.144C547.155 105.576 548.643 107.192 550.835 107.192C552.595 107.192 553.971 106.152 554.339 104.568H553.219C552.915 105.56 551.987 106.2 550.835 106.2C549.267 106.2 548.243 104.968 548.243 103.128C548.243 101.224 549.347 100.024 550.915 100.024C551.987 100.024 552.915 100.616 553.203 101.688H554.307C554.003 100.088 552.691 99.048 550.899 99.048C548.643 99.048 547.155 100.712 547.155 103.144ZM555.355 104.824C555.355 106.264 556.443 107.192 558.187 107.192C559.947 107.192 561.131 106.28 561.131 104.888C561.131 103.768 560.523 103.144 559.179 102.808L557.851 102.472C557.003 102.264 556.587 101.848 556.587 101.256C556.587 100.424 557.195 99.96 558.283 99.96C559.323 99.96 559.947 100.488 559.979 101.384H561.051C561.003 99.944 559.947 99.048 558.315 99.048C556.651 99.048 555.515 99.912 555.515 101.272C555.515 102.328 556.171 103.032 557.515 103.368L558.843 103.704C559.755 103.928 560.075 104.296 560.075 104.936C560.075 105.768 559.371 106.28 558.171 106.28C557.083 106.28 556.411 105.72 556.411 104.824H555.355Z" fill="#726E8D"/>
<path d="M606.192 96.6H609.712V107H610.864V96.6H614.4V95.544H606.192V96.6ZM616.782 107.192C618.094 107.192 619.15 106.616 619.63 105.64L619.774 107H620.702V101.992C620.702 99.944 619.39 99.048 617.598 99.048C615.694 99.048 614.414 100.056 614.414 101.624H615.422C615.422 100.584 616.222 99.976 617.566 99.976C618.702 99.976 619.614 100.456 619.614 101.976V102.232L617.054 102.44C615.246 102.584 614.158 103.48 614.158 104.904C614.158 106.264 615.134 107.192 616.782 107.192ZM617.038 106.296C615.982 106.296 615.278 105.816 615.278 104.872C615.278 104.008 615.87 103.368 617.326 103.24L619.614 103.064V103.48C619.614 105.16 618.67 106.296 617.038 106.296ZM623.878 107L623.99 105.416C624.534 106.616 625.606 107.192 626.902 107.192C629.158 107.192 630.502 105.464 630.502 103.144C630.502 100.808 629.19 99.048 626.934 99.048C625.622 99.048 624.566 99.624 624.022 100.76V95.336H622.918V107H623.878ZM624.038 103.112C624.038 101.336 625.03 100.04 626.726 100.04C628.406 100.04 629.382 101.336 629.382 103.112C629.382 104.904 628.406 106.184 626.726 106.184C625.03 106.184 624.038 104.904 624.038 103.112ZM633.413 107V95.336H632.309V107H633.413ZM639.009 107.192C640.833 107.192 642.033 106.312 642.449 104.68H641.393C641.105 105.704 640.289 106.248 639.025 106.248C637.361 106.248 636.369 105.16 636.289 103.272H642.449V102.728C642.449 100.536 641.025 99.048 638.929 99.048C636.721 99.048 635.217 100.712 635.217 103.128C635.217 105.56 636.737 107.192 639.009 107.192ZM638.929 99.992C640.385 99.992 641.345 100.984 641.345 102.472H636.321C636.513 100.952 637.473 99.992 638.929 99.992ZM643.559 104.824C643.559 106.264 644.647 107.192 646.391 107.192C648.151 107.192 649.335 106.28 649.335 104.888C649.335 103.768 648.727 103.144 647.383 102.808L646.055 102.472C645.207 102.264 644.791 101.848 644.791 101.256C644.791 100.424 645.399 99.96 646.487 99.96C647.527 99.96 648.151 100.488 648.183 101.384H649.255C649.207 99.944 648.151 99.048 646.519 99.048C644.855 99.048 643.719 99.912 643.719 101.272C643.719 102.328 644.375 103.032 645.719 103.368L647.047 103.704C647.959 103.928 648.279 104.296 648.279 104.936C648.279 105.768 647.575 106.28 646.375 106.28C645.287 106.28 644.615 105.72 644.615 104.824H643.559Z" fill="#726E8D"/>
<path d="M700.064 107.176C702.528 107.176 704.528 105.72 705.056 103.56H703.824C703.328 105.096 701.888 106.072 700.08 106.072C697.568 106.072 695.888 104.152 695.888 101.272C695.888 98.376 697.568 96.456 700.08 96.456C701.872 96.456 703.28 97.464 703.76 99.112H704.992C704.528 96.84 702.592 95.352 700.128 95.352C696.896 95.352 694.688 97.752 694.688 101.272C694.688 104.792 696.864 107.176 700.064 107.176ZM707.834 106.984V102.776C707.834 101.288 708.698 100.056 710.362 100.056C711.562 100.056 712.41 100.696 712.41 102.504V107H713.514V102.264C713.514 100.312 712.602 99.048 710.57 99.048C709.274 99.048 708.33 99.672 707.834 100.6V95.336H706.73V106.984H707.834ZM717.939 107.192C719.251 107.192 720.307 106.616 720.787 105.64L720.931 107H721.859V101.992C721.859 99.944 720.547 99.048 718.755 99.048C716.851 99.048 715.571 100.056 715.571 101.624H716.579C716.579 100.584 717.379 99.976 718.723 99.976C719.859 99.976 720.771 100.456 720.771 101.976V102.232L718.211 102.44C716.403 102.584 715.315 103.48 715.315 104.904C715.315 106.264 716.291 107.192 717.939 107.192ZM718.195 106.296C717.139 106.296 716.435 105.816 716.435 104.872C716.435 104.008 717.027 103.368 718.483 103.24L720.771 103.064V103.48C720.771 105.16 719.827 106.296 718.195 106.296ZM724.618 97.128C725.066 97.128 725.45 96.76 725.45 96.312C725.45 95.864 725.066 95.48 724.618 95.48C724.17 95.48 723.802 95.864 723.802 96.312C723.802 96.76 724.17 97.128 724.618 97.128ZM724.074 107H725.178V99.256H724.074V107ZM731.528 99.16C731.256 99.096 731.048 99.08 730.808 99.08C729.72 99.08 728.904 99.624 728.6 100.456L728.52 99.256H727.48V107H728.584V102.584C728.584 101.112 729.496 100.152 730.92 100.152H731.528V99.16ZM732.34 104.824C732.34 106.264 733.428 107.192 735.172 107.192C736.932 107.192 738.116 106.28 738.116 104.888C738.116 103.768 737.508 103.144 736.164 102.808L734.836 102.472C733.988 102.264 733.572 101.848 733.572 101.256C733.572 100.424 734.18 99.96 735.268 99.96C736.308 99.96 736.932 100.488 736.964 101.384H738.036C737.988 99.944 736.932 99.048 735.3 99.048C733.636 99.048 732.5 99.912 732.5 101.272C732.5 102.328 733.156 103.032 734.5 103.368L735.828 103.704C736.74 103.928 737.06 104.296 737.06 104.936C737.06 105.768 736.356 106.28 735.156 106.28C734.068 106.28 733.396 105.72 733.396 104.824H732.34Z" fill="#726E8D"/>
<path d="M789.064 107.176C791.528 107.176 793.528 105.72 794.056 103.56H792.824C792.328 105.096 790.888 106.072 789.08 106.072C786.568 106.072 784.888 104.152 784.888 101.272C784.888 98.376 786.568 96.456 789.08 96.456C790.872 96.456 792.28 97.464 792.76 99.112H793.992C793.528 96.84 791.592 95.352 789.128 95.352C785.896 95.352 783.688 97.752 783.688 101.272C783.688 104.792 785.864 107.176 789.064 107.176ZM799.856 99.16C799.584 99.096 799.376 99.08 799.136 99.08C798.048 99.08 797.232 99.624 796.928 100.456L796.848 99.256H795.808V107H796.912V102.584C796.912 101.112 797.824 100.152 799.248 100.152H799.856V99.16ZM800.483 103.128C800.483 105.48 802.147 107.192 804.419 107.192C806.691 107.192 808.355 105.48 808.355 103.128C808.355 100.76 806.691 99.048 804.419 99.048C802.147 99.048 800.483 100.76 800.483 103.128ZM801.603 103.112C801.603 101.32 802.755 100.04 804.419 100.04C806.067 100.04 807.235 101.32 807.235 103.112C807.235 104.936 806.067 106.2 804.419 106.2C802.755 106.2 801.603 104.936 801.603 103.112ZM809.577 103.144C809.577 105.576 811.065 107.192 813.257 107.192C815.017 107.192 816.393 106.152 816.761 104.568H815.641C815.337 105.56 814.409 106.2 813.257 106.2C811.689 106.2 810.665 104.968 810.665 103.128C810.665 101.224 811.769 100.024 813.337 100.024C814.409 100.024 815.337 100.616 815.625 101.688H816.729C816.425 100.088 815.113 99.048 813.321 99.048C811.065 99.048 809.577 100.712 809.577 103.144ZM819.585 107V104.68L821.089 103.128L823.553 107H824.833L821.841 102.344L824.817 99.256H823.425L819.585 103.256V95.336H818.481V107H819.585ZM829.134 107.192C830.958 107.192 832.158 106.312 832.574 104.68H831.518C831.23 105.704 830.414 106.248 829.15 106.248C827.486 106.248 826.494 105.16 826.414 103.272H832.574V102.728C832.574 100.536 831.15 99.048 829.054 99.048C826.846 99.048 825.342 100.712 825.342 103.128C825.342 105.56 826.862 107.192 829.134 107.192ZM829.054 99.992C830.51 99.992 831.47 100.984 831.47 102.472H826.446C826.638 100.952 827.598 99.992 829.054 99.992ZM838.388 99.16C838.116 99.096 837.908 99.08 837.668 99.08C836.58 99.08 835.764 99.624 835.46 100.456L835.38 99.256H834.34V107H835.444V102.584C835.444 101.112 836.356 100.152 837.78 100.152H838.388V99.16ZM839.306 110.376C839.658 110.456 840.01 110.488 840.474 110.488C841.578 110.488 842.33 109.992 842.778 108.776L846.33 99.256H845.194L842.746 106.008L840.25 99.256H839.082L842.218 107.464L841.882 108.376C841.498 109.416 840.826 109.464 840.154 109.464H839.306V110.376Z" fill="#726E8D"/>
<path d="M891.192 96.6H894.712V107H895.864V96.6H899.4V95.544H891.192V96.6ZM901.782 107.192C903.094 107.192 904.15 106.616 904.63 105.64L904.774 107H905.702V101.992C905.702 99.944 904.39 99.048 902.598 99.048C900.694 99.048 899.414 100.056 899.414 101.624H900.422C900.422 100.584 901.222 99.976 902.566 99.976C903.702 99.976 904.614 100.456 904.614 101.976V102.232L902.054 102.44C900.246 102.584 899.158 103.48 899.158 104.904C899.158 106.264 900.134 107.192 901.782 107.192ZM902.038 106.296C900.982 106.296 900.278 105.816 900.278 104.872C900.278 104.008 900.87 103.368 902.326 103.24L904.614 103.064V103.48C904.614 105.16 903.67 106.296 902.038 106.296ZM908.878 107L908.99 105.416C909.534 106.616 910.606 107.192 911.902 107.192C914.158 107.192 915.502 105.464 915.502 103.144C915.502 100.808 914.19 99.048 911.934 99.048C910.622 99.048 909.566 99.624 909.022 100.76V95.336H907.918V107H908.878ZM909.038 103.112C909.038 101.336 910.03 100.04 911.726 100.04C913.406 100.04 914.382 101.336 914.382 103.112C914.382 104.904 913.406 106.184 911.726 106.184C910.03 106.184 909.038 104.904 909.038 103.112ZM918.413 107V95.336H917.309V107H918.413ZM924.009 107.192C925.833 107.192 927.033 106.312 927.449 104.68H926.393C926.105 105.704 925.289 106.248 924.025 106.248C922.361 106.248 921.369 105.16 921.289 103.272H927.449V102.728C927.449 100.536 926.025 99.048 923.929 99.048C921.721 99.048 920.217 100.712 920.217 103.128C920.217 105.56 921.737 107.192 924.009 107.192ZM923.929 99.992C925.385 99.992 926.345 100.984 926.345 102.472H921.321C921.513 100.952 922.473 99.992 923.929 99.992ZM930.643 107H931.747L933.347 102.136C933.555 101.496 933.683 101.032 933.795 100.616C933.891 101.08 934.019 101.56 934.211 102.136L935.811 107H936.883L939.507 99.256H938.355L936.819 103.928C936.547 104.76 936.515 104.952 936.355 105.592C936.211 105.016 936.019 104.344 935.875 103.928L934.355 99.256H933.219L931.683 103.928C931.603 104.184 931.347 104.968 931.219 105.592C931.059 104.968 930.915 104.44 930.739 103.928L929.219 99.256H928.083L930.643 107ZM942.767 107.192C944.079 107.192 945.135 106.616 945.615 105.64L945.759 107H946.687V101.992C946.687 99.944 945.375 99.048 943.583 99.048C941.679 99.048 940.399 100.056 940.399 101.624H941.407C941.407 100.584 942.207 99.976 943.551 99.976C944.687 99.976 945.599 100.456 945.599 101.976V102.232L943.039 102.44C941.231 102.584 940.143 103.48 940.143 104.904C940.143 106.264 941.119 107.192 942.767 107.192ZM943.023 106.296C941.967 106.296 941.263 105.816 941.263 104.872C941.263 104.008 941.855 103.368 943.311 103.24L945.599 103.064V103.48C945.599 105.16 944.655 106.296 943.023 106.296ZM952.95 99.16C952.678 99.096 952.47 99.08 952.23 99.08C951.142 99.08 950.326 99.624 950.022 100.456L949.942 99.256H948.902V107H950.006V102.584C950.006 101.112 950.918 100.152 952.342 100.152H952.95V99.16ZM957.369 107.192C959.193 107.192 960.393 106.312 960.809 104.68H959.753C959.465 105.704 958.649 106.248 957.385 106.248C955.721 106.248 954.729 105.16 954.649 103.272H960.809V102.728C960.809 100.536 959.385 99.048 957.289 99.048C955.081 99.048 953.577 100.712 953.577 103.128C953.577 105.56 955.097 107.192 957.369 107.192ZM957.289 99.992C958.745 99.992 959.705 100.984 959.705 102.472H954.681C954.873 100.952 955.833 99.992 957.289 99.992Z" fill="#726E8D"/>
<path d="M1012.06 107.176C1014.53 107.176 1016.53 105.72 1017.06 103.56H1015.82C1015.33 105.096 1013.89 106.072 1012.08 106.072C1009.57 106.072 1007.89 104.152 1007.89 101.272C1007.89 98.376 1009.57 96.456 1012.08 96.456C1013.87 96.456 1015.28 97.464 1015.76 99.112H1016.99C1016.53 96.84 1014.59 95.352 1012.13 95.352C1008.9 95.352 1006.69 97.752 1006.69 101.272C1006.69 104.792 1008.86 107.176 1012.06 107.176ZM1024.25 99.256V103.368C1024.25 105.208 1023.37 106.2 1021.88 106.2C1020.65 106.2 1019.83 105.544 1019.83 103.704V99.24H1018.71V104.056C1018.71 105.944 1019.7 107.192 1021.53 107.192C1022.74 107.192 1023.82 106.584 1024.25 105.688L1024.39 107H1025.35V99.256H1024.25ZM1029.43 107V100.184H1030.98V99.256H1029.43V96.808H1028.34V99.256H1026.79V100.184H1028.34V107H1029.43ZM1033.57 107V95.336H1032.47V107H1033.57ZM1039.17 107.192C1040.99 107.192 1042.19 106.312 1042.61 104.68H1041.55C1041.26 105.704 1040.45 106.248 1039.18 106.248C1037.52 106.248 1036.53 105.16 1036.45 103.272H1042.61V102.728C1042.61 100.536 1041.18 99.048 1039.09 99.048C1036.88 99.048 1035.37 100.712 1035.37 103.128C1035.37 105.56 1036.89 107.192 1039.17 107.192ZM1039.09 99.992C1040.54 99.992 1041.5 100.984 1041.5 102.472H1036.48C1036.67 100.952 1037.63 99.992 1039.09 99.992ZM1048.42 99.16C1048.15 99.096 1047.94 99.08 1047.7 99.08C1046.61 99.08 1045.79 99.624 1045.49 100.456L1045.41 99.256H1044.37V107H1045.47V102.584C1045.47 101.112 1046.39 100.152 1047.81 100.152H1048.42V99.16ZM1049.34 110.376C1049.69 110.456 1050.04 110.488 1050.5 110.488C1051.61 110.488 1052.36 109.992 1052.81 108.776L1056.36 99.256H1055.22L1052.78 106.008L1050.28 99.256H1049.11L1052.25 107.464L1051.91 108.376C1051.53 109.416 1050.86 109.464 1050.18 109.464H1049.34V110.376Z" fill="#726E8D"/>
<line x1="28" y1="69.5001" x2="1414" y2="69.5" stroke="black" stroke-opacity="0.1"/>
<rect width="16" height="16" transform="translate(1396 26)" fill="white" style="mix-blend-mode:multiply"/>
<path d="M1404 30C1403.51 30 1403.02 30.1466 1402.61 30.4213C1402.2 30.696 1401.88 31.0865 1401.69 31.5433C1401.5 32.0001 1401.45 32.5028 1401.55 32.9877C1401.64 33.4727 1401.88 33.9181 1402.23 34.2678C1402.58 34.6174 1403.03 34.8555 1403.51 34.952C1404 35.0484 1404.5 34.9989 1404.96 34.8097C1405.41 34.6205 1405.8 34.3 1406.08 33.8889C1406.35 33.4778 1406.5 32.9945 1406.5 32.5C1406.5 31.837 1406.24 31.2011 1405.77 30.7322C1405.3 30.2634 1404.66 30 1404 30ZM1404 34C1403.7 34 1403.41 33.912 1403.17 33.7472C1402.92 33.5824 1402.73 33.3481 1402.61 33.074C1402.5 32.7999 1402.47 32.4983 1402.53 32.2074C1402.59 31.9164 1402.73 31.6491 1402.94 31.4393C1403.15 31.2296 1403.42 31.0867 1403.71 31.0288C1404 30.9709 1404.3 31.0006 1404.57 31.1142C1404.85 31.2277 1405.08 31.42 1405.25 31.6666C1405.41 31.9133 1405.5 32.2033 1405.5 32.5C1405.5 32.8977 1405.34 33.279 1405.06 33.5602C1404.78 33.8414 1404.4 33.9995 1404 34Z" fill="#2A254B"/>
<path d="M1404 27C1402.62 27 1401.26 27.4105 1400.11 28.1797C1398.96 28.9489 1398.06 30.0421 1397.53 31.3212C1397 32.6003 1396.86 34.0078 1397.13 35.3656C1397.4 36.7235 1398.07 37.9708 1399.05 38.9497C1400.03 39.9287 1401.28 40.5954 1402.63 40.8655C1403.99 41.1356 1405.4 40.997 1406.68 40.4672C1407.96 39.9373 1409.05 39.0401 1409.82 37.889C1410.59 36.7378 1411 35.3845 1411 34C1411 32.1441 1410.26 30.3649 1408.95 29.0526C1407.64 27.7403 1405.86 27.0021 1404 27ZM1401 39.1882V38.5C1401 38.1023 1401.16 37.721 1401.44 37.4398C1401.72 37.1586 1402.1 37.0004 1402.5 37H1405.5C1405.9 37.0004 1406.28 37.1586 1406.56 37.4398C1406.84 37.721 1407 38.1023 1407 38.5V39.1882C1406.09 39.7199 1405.05 40 1404 40C1402.95 40 1401.91 39.7199 1401 39.1882ZM1408 38.4629C1407.99 37.807 1407.72 37.1813 1407.25 36.7206C1406.79 36.2599 1406.16 36.0011 1405.5 36H1402.5C1401.84 36.0011 1401.21 36.2599 1400.75 36.7206C1400.28 37.1813 1400.01 37.807 1400 38.4629C1399.1 37.6533 1398.46 36.5873 1398.17 35.4062C1397.88 34.2251 1397.96 32.9846 1398.39 31.8488C1398.83 30.7131 1399.6 29.7357 1400.6 29.0462C1401.6 28.3566 1402.78 27.9874 1404 27.9874C1405.22 27.9874 1406.4 28.3566 1407.4 29.0462C1408.4 29.7357 1409.17 30.7131 1409.61 31.8488C1410.04 32.9846 1410.12 34.2251 1409.83 35.4062C1409.54 36.5873 1408.9 37.6533 1408 38.4629Z" fill="#2A254B"/>
<rect width="16" height="16" transform="translate(1364 26)" fill="white" style="mix-blend-mode:multiply"/>
<path d="M1369 41C1369.55 41 1370 40.5523 1370 40C1370 39.4477 1369.55 39 1369 39C1368.45 39 1368 39.4477 1368 40C1368 40.5523 1368.45 41 1369 41Z" fill="#2A254B"/>
<path d="M1376 41C1376.55 41 1377 40.5523 1377 40C1377 39.4477 1376.55 39 1376 39C1375.45 39 1375 39.4477 1375 40C1375 40.5523 1375.45 41 1376 41Z" fill="#2A254B"/>
<path d="M1378 29.5H1366.91L1366.5 27.4C1366.48 27.2854 1366.41 27.1826 1366.32 27.1095C1366.23 27.0364 1366.12 26.9977 1366 27H1364V28H1365.59L1367.5 37.6C1367.52 37.7146 1367.59 37.8175 1367.68 37.8905C1367.77 37.9636 1367.88 38.0024 1368 38H1377V37H1368.41L1368 35H1377C1377.12 35.0028 1377.23 34.9655 1377.32 34.8944C1377.41 34.8233 1377.47 34.7228 1377.5 34.61L1378.5 30.11C1378.52 30.0358 1378.52 29.9588 1378.5 29.8848C1378.48 29.8108 1378.45 29.7417 1378.4 29.6829C1378.35 29.6241 1378.29 29.577 1378.22 29.5453C1378.15 29.5136 1378.08 29.4981 1378 29.5ZM1376.6 34H1367.81L1367.11 30.5H1377.38L1376.6 34Z" fill="#2A254B"/>
<rect width="16" height="16" transform="translate(28 26)" fill="white" style="mix-blend-mode:multiply"/>
<path d="M42.5001 39.7929L38.7241 36.0169C39.6314 34.9276 40.0839 33.5304 39.9873 32.116C39.8908 30.7015 39.2526 29.3788 38.2057 28.4229C37.1587 27.467 35.7835 26.9515 34.3661 26.9837C32.9488 27.0159 31.5984 27.5933 30.5959 28.5958C29.5935 29.5983 29.0161 30.9487 28.9838 32.366C28.9516 33.7833 29.4671 35.1586 30.423 36.2055C31.3789 37.2525 32.7017 37.8907 34.1161 37.9872C35.5305 38.0838 36.9277 37.6313 38.017 36.7239L41.7931 40.5L42.5001 39.7929ZM30.0001 32.5C30.0001 31.61 30.264 30.74 30.7585 29.9999C31.253 29.2599 31.9558 28.6831 32.778 28.3425C33.6003 28.0019 34.5051 27.9128 35.378 28.0865C36.2509 28.2601 37.0528 28.6887 37.6821 29.318C38.3114 29.9474 38.74 30.7492 38.9137 31.6221C39.0873 32.495 38.9982 33.3998 38.6576 34.2221C38.317 35.0443 37.7402 35.7471 37.0002 36.2416C36.2602 36.7361 35.3901 37 34.5001 37C33.3071 36.9987 32.1632 36.5241 31.3196 35.6805C30.476 34.8369 30.0014 33.6931 30.0001 32.5Z" fill="#2A254B"/>
</svg>
